<mxfile host="app.diagrams.net" modified="2023-11-26T08:43:35.315Z" agent="Mozilla/5.0 (Macintosh; Intel Mac OS X 10_15_7) AppleWebKit/537.36 (KHTML, like Gecko) Chrome/119.0.0.0 Safari/537.36" etag="al8sGP-6_lbhAmX5JyA6" version="22.1.4" type="device">
  <diagram name="Page-1" id="zLcRd1PjfcdObLAEp0Rb">
    <mxGraphModel dx="1026" dy="687" grid="1" gridSize="10" guides="1" tooltips="1" connect="1" arrows="1" fold="1" page="1" pageScale="1" pageWidth="827" pageHeight="1169" math="0" shadow="0">
      <root>
        <mxCell id="0" />
        <mxCell id="1" parent="0" />
        <mxCell id="GjXlNDv-3XHmv9zlbruF-3" style="edgeStyle=orthogonalEdgeStyle;rounded=0;orthogonalLoop=1;jettySize=auto;html=1;entryX=0;entryY=0.5;entryDx=0;entryDy=0;" edge="1" parent="1" source="GjXlNDv-3XHmv9zlbruF-1" target="GjXlNDv-3XHmv9zlbruF-2">
          <mxGeometry relative="1" as="geometry" />
        </mxCell>
        <mxCell id="GjXlNDv-3XHmv9zlbruF-6" style="edgeStyle=orthogonalEdgeStyle;rounded=0;orthogonalLoop=1;jettySize=auto;html=1;" edge="1" parent="1" source="GjXlNDv-3XHmv9zlbruF-1" target="GjXlNDv-3XHmv9zlbruF-5">
          <mxGeometry relative="1" as="geometry" />
        </mxCell>
        <mxCell id="GjXlNDv-3XHmv9zlbruF-1" value="Customer" style="swimlane;whiteSpace=wrap;html=1;" vertex="1" parent="1">
          <mxGeometry x="145" y="70" width="200" height="200" as="geometry" />
        </mxCell>
        <mxCell id="GjXlNDv-3XHmv9zlbruF-2" value="Order" style="swimlane;whiteSpace=wrap;html=1;" vertex="1" parent="1">
          <mxGeometry x="520" y="70" width="200" height="200" as="geometry" />
        </mxCell>
        <mxCell id="GjXlNDv-3XHmv9zlbruF-4" value="&amp;lt;&amp;lt;Create&amp;gt;&amp;gt;" style="text;html=1;strokeColor=none;fillColor=none;align=center;verticalAlign=middle;whiteSpace=wrap;rounded=0;" vertex="1" parent="1">
          <mxGeometry x="370" y="140" width="60" height="30" as="geometry" />
        </mxCell>
        <mxCell id="GjXlNDv-3XHmv9zlbruF-10" style="edgeStyle=orthogonalEdgeStyle;rounded=0;orthogonalLoop=1;jettySize=auto;html=1;" edge="1" parent="1" source="GjXlNDv-3XHmv9zlbruF-5">
          <mxGeometry relative="1" as="geometry">
            <mxPoint x="510" y="480" as="targetPoint" />
          </mxGeometry>
        </mxCell>
        <mxCell id="GjXlNDv-3XHmv9zlbruF-13" style="edgeStyle=orthogonalEdgeStyle;rounded=0;orthogonalLoop=1;jettySize=auto;html=1;entryX=0;entryY=0.5;entryDx=0;entryDy=0;" edge="1" parent="1" source="GjXlNDv-3XHmv9zlbruF-5" target="GjXlNDv-3XHmv9zlbruF-9">
          <mxGeometry relative="1" as="geometry" />
        </mxCell>
        <mxCell id="GjXlNDv-3XHmv9zlbruF-5" value="OrderManager" style="swimlane;whiteSpace=wrap;html=1;startSize=23;" vertex="1" parent="1">
          <mxGeometry x="140" y="380" width="210" height="200" as="geometry" />
        </mxCell>
        <mxCell id="GjXlNDv-3XHmv9zlbruF-12" value="List&amp;lt;Restaurant&amp;gt; res&lt;br&gt;List&amp;lt;Delivery Partner&amp;gt; dp&lt;br&gt;&lt;br&gt;&lt;br&gt;&lt;br&gt;boolean notifyRestaurant(String id, List&amp;lt;String&amp;gt; menu)" style="text;html=1;strokeColor=none;fillColor=none;align=center;verticalAlign=middle;whiteSpace=wrap;rounded=0;" vertex="1" parent="GjXlNDv-3XHmv9zlbruF-5">
          <mxGeometry x="10" y="30" width="200" height="120" as="geometry" />
        </mxCell>
        <mxCell id="GjXlNDv-3XHmv9zlbruF-7" value="has-a" style="text;html=1;strokeColor=none;fillColor=none;align=center;verticalAlign=middle;whiteSpace=wrap;rounded=0;" vertex="1" parent="1">
          <mxGeometry x="240" y="300" width="60" height="30" as="geometry" />
        </mxCell>
        <mxCell id="GjXlNDv-3XHmv9zlbruF-8" value="Restaurant" style="swimlane;whiteSpace=wrap;html=1;" vertex="1" parent="1">
          <mxGeometry x="510" y="320" width="200" height="200" as="geometry" />
        </mxCell>
        <mxCell id="GjXlNDv-3XHmv9zlbruF-14" value="getNotification(List&amp;lt;String&amp;gt; menu)" style="text;html=1;align=center;verticalAlign=middle;resizable=0;points=[];autosize=1;strokeColor=none;fillColor=none;" vertex="1" parent="GjXlNDv-3XHmv9zlbruF-8">
          <mxGeometry y="110" width="200" height="30" as="geometry" />
        </mxCell>
        <mxCell id="GjXlNDv-3XHmv9zlbruF-9" value="DeliveryPartner" style="swimlane;whiteSpace=wrap;html=1;" vertex="1" parent="1">
          <mxGeometry x="510" y="550" width="200" height="200" as="geometry" />
        </mxCell>
        <mxCell id="GjXlNDv-3XHmv9zlbruF-11" value="has-a" style="text;html=1;strokeColor=none;fillColor=none;align=center;verticalAlign=middle;whiteSpace=wrap;rounded=0;" vertex="1" parent="1">
          <mxGeometry x="360" y="450" width="60" height="30" as="geometry" />
        </mxCell>
      </root>
    </mxGraphModel>
  </diagram>
</mxfile>
